<?xml version="1.0" encoding="UTF-8" standalone="no"?>
<!-- Created with Inkscape (http://www.inkscape.org/) -->

<svg
   width="59.025585mm"
   height="43.265305mm"
   viewBox="0 0 59.025585 43.265305"
   version="1.1"
   id="svg1"
   xml:space="preserve"
   inkscape:version="1.3.2 (091e20e, 2023-11-25, custom)"
   sodipodi:docname="Fig1G.svg"
   inkscape:export-filename="Fig1G.png"
   inkscape:export-xdpi="254"
   inkscape:export-ydpi="254"
   xmlns:inkscape="http://www.inkscape.org/namespaces/inkscape"
   xmlns:sodipodi="http://sodipodi.sourceforge.net/DTD/sodipodi-0.dtd"
   xmlns="http://www.w3.org/2000/svg"
   xmlns:svg="http://www.w3.org/2000/svg"
   xmlns:rdf="http://www.w3.org/1999/02/22-rdf-syntax-ns#"
   xmlns:cc="http://creativecommons.org/ns#"
   xmlns:dc="http://purl.org/dc/elements/1.1/"><sodipodi:namedview
     id="namedview1"
     pagecolor="#ffffff"
     bordercolor="#666666"
     borderopacity="1.0"
     inkscape:showpageshadow="2"
     inkscape:pageopacity="0.0"
     inkscape:pagecheckerboard="0"
     inkscape:deskcolor="#d1d1d1"
     inkscape:document-units="mm"
     inkscape:zoom="0.5121316"
     inkscape:cx="288.01191"
     inkscape:cy="-491.08471"
     inkscape:window-width="1920"
     inkscape:window-height="1009"
     inkscape:window-x="1912"
     inkscape:window-y="-8"
     inkscape:window-maximized="1"
     inkscape:current-layer="svg1"
     showgrid="false"><inkscape:grid
       id="grid84"
       units="px"
       originx="-9.9999708"
       originy="-250.39699"
       spacingx="0.26458333"
       spacingy="0.26458334"
       empcolor="#0099e5"
       empopacity="0.30196078"
       color="#0099e5"
       opacity="0.14902"
       empspacing="5"
       dotted="false"
       gridanglex="30"
       gridanglez="30"
       visible="false" /></sodipodi:namedview><title
     id="title1">Figure1</title><defs
     id="defs1"><marker
   style="overflow:visible"
   id="marker1913"
   refX="0"
   refY="0"
   orient="auto-start-reverse"
   inkscape:stockid="Triangle arrow"
   markerWidth="1"
   markerHeight="1"
   viewBox="0 0 1 1"
   inkscape:isstock="true"
   inkscape:collect="always"
   preserveAspectRatio="xMidYMid"><path
     transform="scale(0.5)"
     style="fill:context-stroke;fill-rule:evenodd;stroke:context-stroke;stroke-width:1pt"
     d="M 5.77,0 -2.88,5 V -5 Z"
     id="path1913" /></marker><marker
   style="overflow:visible"
   id="Triangle"
   refX="0"
   refY="0"
   orient="auto-start-reverse"
   inkscape:stockid="Triangle arrow"
   markerWidth="1"
   markerHeight="1"
   viewBox="0 0 1 1"
   inkscape:isstock="true"
   inkscape:collect="always"
   preserveAspectRatio="xMidYMid"><path
     transform="scale(0.5)"
     style="fill:context-stroke;fill-rule:evenodd;stroke:context-stroke;stroke-width:1pt"
     d="M 5.77,0 -2.88,5 V -5 Z"
     id="path1911" /></marker><style
   type="text/css"
   id="style1">*{stroke-linejoin: round; stroke-linecap: butt}</style><path
   id="mf656456157"
   d="M 0,0 V 3.5"
   style="stroke:#000000;stroke-width:0.8" /><path
   id="mecac8e85ad"
   d="M 0,0 H -3.5"
   style="stroke:#000000;stroke-width:0.8" /><path
   id="C0_0_d1347b5a4f"
   d="m 0,2.236068 c 0.593012,0 1.161816,-0.235606 1.581139,-0.654929 C 2.000462,1.161816 2.236068,0.593012 2.236068,0 c 0,-0.593012 -0.235606,-1.161816 -0.654929,-1.581139 C 1.161816,-2.000462 0.593012,-2.236068 0,-2.236068 c -0.593012,0 -1.161816,0.235606 -1.581139,0.654929 C -2.000462,-1.161816 -2.236068,-0.593012 -2.236068,0 c 0,0.593012 0.235606,1.161816 0.654929,1.581139 C -1.161816,2.000462 -0.593012,2.236068 0,2.236068 Z" /><path
   id="m6ae34e74fa"
   d="m 79.509188,-47.38338 h -0.03 l -0.02147,-0.343293 -0.03343,-0.343294 -0.03574,-0.343293 -0.02025,-0.343294 0.0076,-0.343294 0.03064,-0.343293 0.03637,-0.343294 0.02719,-0.343293 0.0132,-0.343294 3.1e-5,-0.343294 -0.01384,-0.343293 -0.03105,-0.343294 -0.0487,-0.343294 -0.05921,-0.343293 -0.05977,-0.343294 -0.05924,-0.343293 -0.0717,-0.343294 -0.104086,-0.343294 -0.153805,-0.343293 -0.217275,-0.343294 -0.301296,-0.343293 -0.434181,-0.343294 -0.671149,-0.343294 -1.079376,-0.343293 -1.70012,-0.343294 -2.503434,-0.343293 -3.349336,-0.343294 -3.985007,-0.343294 -4.135059,-0.343293 -3.669419,-0.343294 -2.699442,-0.343294 -1.495923,-0.343293 -0.322037,-0.343294 0.672068,-0.343293 1.449335,-0.343294 2.005856,-0.343294 2.2997,-0.343293 2.29265,-0.343294 2.049938,-0.343293 1.736192,-0.343294 1.49202,-0.343294 1.338827,-0.343293 1.218957,-0.343294 1.107242,-0.343294 1.037496,-0.343293 1.0169,-0.343294 0.979502,-0.343293 0.862388,-0.343294 0.685331,-0.343294 0.517832,-0.343293 0.3976,-0.343294 0.317397,-0.343293 0.271747,-0.343294 0.273258,-0.343294 0.314377,-0.343293 0.345134,-0.343294 0.318164,-0.343293 0.246163,-0.343294 0.18937,-0.343294 0.18737,-0.343293 0.220642,-0.343294 0.240488,-0.343294 0.22283,-0.343293 0.18458,-0.343294 0.154026,-0.343293 0.137791,-0.343294 0.1206,-0.343294 0.08978,-0.343293 0.05078,-0.343294 0.0178,-0.343293 -0.0026,-0.343294 -0.0118,-0.343294 -0.0097,-0.343293 0.0045,-0.343294 0.02386,-0.343294 0.03557,-0.343293 0.03343,-0.343294 0.02239,-0.343293 0.01079,-0.343294 0.0024,-0.343294 -0.0042,-0.343293 -0.01112,-0.343294 -0.01763,-0.343293 -0.01954,-0.343294 -0.01434,-0.343294 -0.0059,-0.343293 -9.3e-4,-0.343294 1.26e-4,-0.343293 0.0028,-0.343294 0.0089,-0.343294 0.01184,-0.343293 0.0062,-0.343294 -0.0043,-0.343294 -0.0092,-0.343293 -0.003,-0.343294 0.0093,-0.343293 0.01764,-0.343294 0.01742,-0.343294 0.01169,-0.343293 h 0.0172 v 0 l 0.01168,0.343293 0.01742,0.343294 0.01764,0.343294 0.0093,0.343293 -0.003,0.343294 -0.0092,0.343293 -0.0043,0.343294 0.0062,0.343294 0.01184,0.343293 0.0089,0.343294 0.0028,0.343294 1.26e-4,0.343293 -9.3e-4,0.343294 -0.0059,0.343293 -0.01434,0.343294 -0.01954,0.343294 -0.01763,0.343293 -0.01112,0.343294 -0.0042,0.343293 0.0024,0.343294 0.01079,0.343294 0.02239,0.343293 0.03343,0.343294 0.03557,0.343293 0.02386,0.343294 0.0045,0.343294 -0.0097,0.343293 -0.0118,0.343294 -0.0026,0.343294 0.0178,0.343293 0.05078,0.343294 0.08978,0.343293 0.120601,0.343294 0.137791,0.343294 0.154026,0.343293 0.184579,0.343294 0.22283,0.343293 0.240488,0.343294 0.220643,0.343294 0.18737,0.343293 0.18937,0.343294 0.246163,0.343294 0.318164,0.343293 0.345133,0.343294 0.314378,0.343293 0.273257,0.343294 0.271748,0.343294 0.317397,0.343293 0.3976,0.343294 0.517831,0.343293 0.685332,0.343294 0.862387,0.343294 0.979503,0.343293 1.0169,0.343294 1.037496,0.343293 1.107241,0.343294 1.218957,0.343294 1.338828,0.343293 1.49202,0.343294 1.736192,0.343294 2.049937,0.343293 2.292647,0.343294 2.2997,0.343293 2.00586,0.343294 1.44933,0.343294 0.67207,0.343293 -0.32203,0.343294 -1.49593,0.343293 -2.69944,0.343294 -3.669418,0.343294 -4.13506,0.343293 -3.985007,0.343294 -3.349335,0.343294 -2.503434,0.343293 -1.70012,0.343294 -1.079376,0.343293 -0.671149,0.343294 -0.434181,0.343294 -0.301296,0.343293 -0.217275,0.343294 -0.153805,0.343293 -0.104086,0.343294 -0.0717,0.343294 -0.05924,0.343293 -0.05977,0.343294 -0.05921,0.343293 -0.0487,0.343294 -0.03105,0.343294 -0.01384,0.343293 3e-5,0.343294 0.0132,0.343294 0.02719,0.343293 0.03637,0.343294 0.03064,0.343293 0.0076,0.343294 -0.02025,0.343294 -0.03574,0.343293 -0.03343,0.343294 z"
   style="stroke:#373737;stroke-width:1.25;stroke-opacity:0.5" /><path
   id="mb04170740f"
   d="m 147.49857,-47.828582 h -0.13214 l -0.077,-0.827234 -0.15136,-0.827234 -0.28096,-0.827234 -0.49085,-0.827234 -0.80468,-0.827235 -1.23435,-0.827234 -1.7666,-0.827234 -2.35206,-0.827234 -2.90377,-0.827235 -3.31122,-0.827234 -3.46958,-0.827234 -3.31512,-0.827234 -2.85207,-0.827234 -2.15688,-0.827235 -1.35613,-0.827234 -0.58666,-0.827234 0.0441,-0.827234 0.48222,-0.827234 0.72714,-0.827235 0.8151,-0.827234 0.79589,-0.827234 0.71584,-0.827234 0.61161,-0.827234 0.51254,-0.827235 0.44522,-0.827234 0.43453,-0.827234 0.49902,-0.827234 0.64293,-0.827234 0.85023,-0.827235 1.08544,-0.827234 1.303,-0.827234 1.46168,-0.827234 1.53789,-0.827234 1.53145,-0.827235 1.4613,-0.827234 1.35445,-0.827234 1.23389,-0.827234 1.11179,-0.827234 0.98967,-0.827235 0.8638,-0.827234 0.73113,-0.827234 0.59305,-0.827234 0.45537,-0.827234 0.32631,-0.827235 0.21376,-0.827234 0.12336,-0.827234 0.0579,-0.827234 0.0177,-0.827234 0.001,-0.827235 0.006,-0.827234 0.0272,-0.827234 0.0592,-0.827234 0.0933,-0.827234 0.12011,-0.827235 0.13217,-0.827234 0.12697,-0.827234 0.10863,-0.827234 0.0871,-0.827234 0.0745,-0.827235 0.0796,-0.827234 0.10435,-0.827234 0.14265,-0.827234 0.18299,-0.827234 0.21342,-0.827234 0.22605,-0.82724 0.21904,-0.82723 0.19567,-0.82723 0.16181,-0.82724 0.1233,-0.82723 0.0848,-0.82724 0.0497,-0.82723 0.0208,-0.82723 4.2e-4,-0.82724 -0.01,-0.82723 -0.0103,-0.82724 -0.002,-0.82723 0.0119,-0.82724 0.0286,-0.82723 0.0448,-0.82723 0.0577,-0.82724 0.0655,-0.82723 0.0667,-0.82724 0.0614,-0.82723 0.0505,-0.82723 0.036,-0.82724 0.0202,-0.82723 0.006,-0.82724 -0.006,-0.82723 -0.0123,-0.82724 -0.0134,-0.82723 -0.01,-0.82723 -0.002,-0.82724 0.007,-0.82723 0.0142,-0.82724 0.019,-0.82723 0.0204,-0.82724 0.0188,-0.82723 0.0153,-0.82723 0.0112,-0.82724 h 0.0328 v 0 l 0.0112,0.82724 0.0153,0.82723 0.0188,0.82723 0.0204,0.82724 0.019,0.82723 0.0142,0.82724 0.007,0.82723 -0.002,0.82724 -0.009,0.82723 -0.0134,0.82723 -0.0123,0.82724 -0.006,0.82723 0.006,0.82724 0.0202,0.82723 0.036,0.82724 0.0505,0.82723 0.0614,0.82723 0.0667,0.82724 0.0654,0.82723 0.0578,0.82724 0.0448,0.82723 0.0286,0.82723 0.0119,0.82724 -0.002,0.82723 -0.0103,0.82724 -0.01,0.82723 4.2e-4,0.82724 0.0208,0.82723 0.0497,0.82723 0.0848,0.82724 0.1233,0.82723 0.16181,0.82724 0.19567,0.82723 0.21903,0.82723 0.22606,0.82724 0.21342,0.827234 0.18299,0.827234 0.14264,0.827234 0.10436,0.827234 0.0796,0.827234 0.0745,0.827235 0.0872,0.827234 0.10863,0.827234 0.12696,0.827234 0.13218,0.827234 0.12011,0.827235 0.0933,0.827234 0.0592,0.827234 0.0272,0.827234 0.006,0.827234 0.001,0.827235 0.0177,0.827234 0.0579,0.827234 0.12336,0.827234 0.21376,0.827234 0.32631,0.827235 0.45537,0.827234 0.59304,0.827234 0.73114,0.827234 0.86379,0.827234 0.98968,0.827235 1.11179,0.827234 1.23389,0.827234 1.35445,0.827234 1.4613,0.827234 1.53145,0.827235 1.53789,0.827234 1.46168,0.827234 1.303,0.827234 1.08544,0.827234 0.85023,0.827235 0.64293,0.827234 0.49902,0.827234 0.43453,0.827234 0.44522,0.827234 0.51254,0.827235 0.61161,0.827234 0.71584,0.827234 0.79589,0.827234 0.8151,0.827234 0.72714,0.827235 0.48222,0.827234 0.0442,0.827234 -0.58666,0.827234 -1.35613,0.827234 -2.15688,0.827235 -2.85207,0.827234 -3.31512,0.827234 -3.46958,0.827234 -3.31122,0.827234 -2.90377,0.827235 -2.35206,0.827234 -1.7666,0.827234 -1.23435,0.827234 -0.80469,0.827235 -0.49084,0.827234 -0.28096,0.827234 -0.15136,0.827234 z"
   style="stroke:#373737;stroke-width:1.25;stroke-opacity:0.5" /><path
   id="m61f537e5bb"
   d="m 215.49388,-46.105625 h -0.24614 l -0.0763,-0.809699 -0.1153,-0.809698 -0.16927,-0.809699 -0.24133,-0.809699 -0.33403,-0.809699 -0.44883,-0.809698 -0.58531,-0.809699 -0.74074,-0.809699 -0.90974,-0.809699 -1.08442,-0.809698 -1.25494,-0.809699 -1.41072,-0.809699 -1.54167,-0.809698 -1.63979,-0.809699 -1.70021,-0.809699 -1.72178,-0.809699 -1.70684,-0.809698 -1.66029,-0.809699 -1.58801,-0.809699 -1.49542,-0.809699 -1.38617,-0.809698 -1.26166,-0.809699 -1.12122,-0.809699 -0.96307,-0.809698 -0.78561,-0.809699 -0.58863,-0.809699 -0.37418,-0.809699 -0.14677,-0.809698 0.0868,-0.809699 0.31833,-0.809699 0.53891,-0.809698 0.73998,-0.809699 0.91391,-0.809699 1.0547,-0.809699 1.15832,-0.809698 1.22307,-0.809699 1.24972,-0.809699 1.24141,-0.809699 1.20334,-0.809698 1.14199,-0.809699 1.06428,-0.809699 0.97658,-0.809698 0.8839,-0.809699 0.78943,-0.809699 0.69466,-0.809699 0.59987,-0.809698 0.50489,-0.809699 0.41001,-0.809699 0.31659,-0.809699 0.22721,-0.809698 0.14553,-0.809699 0.0757,-0.809699 0.0216,-0.809698 -0.014,-0.809699 -0.0299,-0.809699 -0.0267,-0.809699 -0.007,-0.809698 0.0262,-0.809699 0.0676,-0.809699 0.11261,-0.809699 0.15667,-0.809698 0.19613,-0.809699 0.22837,-0.809699 0.25197,-0.809698 0.26676,-0.809699 0.27358,-0.809699 0.27414,-0.809699 0.27075,-0.8097 0.26605,-0.8097 0.26271,-0.8097 0.26311,-0.80969 0.26906,-0.8097 0.28154,-0.8097 0.30047,-0.8097 0.32468,-0.8097 0.35195,-0.8097 0.37931,-0.8097 0.40345,-0.8097 0.42123,-0.80969 0.43011,-0.8097 0.42862,-0.8097 0.41644,-0.8097 0.39447,-0.8097 0.36455,-0.8097 0.32913,-0.8097 0.29084,-0.8097 0.25213,-0.80969 0.21502,-0.8097 0.18085,-0.8097 0.1504,-0.8097 0.12389,-0.8097 0.10116,-0.8097 0.0819,-0.8097 0.0656,-0.80969 0.0519,-0.8097 0.0404,-0.8097 0.0309,-0.8097 0.0231,-0.8097 0.0169,-0.8097 h 0.0703 v 0 l 0.0169,0.8097 0.0231,0.8097 0.0309,0.8097 0.0404,0.8097 0.0519,0.8097 0.0656,0.80969 0.0819,0.8097 0.10117,0.8097 0.12388,0.8097 0.1504,0.8097 0.18085,0.8097 0.21502,0.8097 0.25214,0.80969 0.29084,0.8097 0.32912,0.8097 0.36455,0.8097 0.39447,0.8097 0.41644,0.8097 0.42862,0.8097 0.43011,0.8097 0.42123,0.80969 0.40345,0.8097 0.37931,0.8097 0.35195,0.8097 0.32468,0.8097 0.30048,0.8097 0.28153,0.8097 0.26906,0.8097 0.26311,0.80969 0.26271,0.8097 0.26605,0.8097 0.27076,0.8097 0.27413,0.809699 0.27358,0.809699 0.26676,0.809699 0.25198,0.809698 0.22836,0.809699 0.19613,0.809699 0.15667,0.809698 0.11261,0.809699 0.0676,0.809699 0.0263,0.809699 -0.007,0.809698 -0.0267,0.809699 -0.0299,0.809699 -0.014,0.809699 0.0216,0.809698 0.0757,0.809699 0.14553,0.809699 0.22721,0.809698 0.31659,0.809699 0.41002,0.809699 0.50488,0.809699 0.59987,0.809698 0.69466,0.809699 0.78944,0.809699 0.88389,0.809699 0.97658,0.809698 1.06429,0.809699 1.14198,0.809699 1.20334,0.809698 1.24142,0.809699 1.24971,0.809699 1.22307,0.809699 1.15832,0.809698 1.0547,0.809699 0.91391,0.809699 0.73998,0.809699 0.53892,0.809698 0.31832,0.809699 0.0868,0.809699 -0.14678,0.809698 -0.37418,0.809699 -0.58863,0.809699 -0.78561,0.809699 -0.96307,0.809698 -1.12122,0.809699 -1.26166,0.809699 -1.38617,0.809698 -1.49542,0.809699 -1.588,0.809699 -1.66029,0.809699 -1.70685,0.809698 -1.72178,0.809699 -1.70021,0.809699 -1.63978,0.809699 -1.54168,0.809698 -1.41071,0.809699 -1.25495,0.809699 -1.08441,0.809698 -0.90975,0.809699 -0.74074,0.809699 -0.58531,0.809699 -0.44883,0.809698 -0.33403,0.809699 -0.24132,0.809699 -0.16927,0.809699 -0.11531,0.809698 z"
   style="stroke:#373737;stroke-width:1.25;stroke-opacity:0.5" /><path
   id="m5396f28d88"
   d="m 393.69872,-56.810162 h -0.65907 l -0.22023,-0.237876 -0.33645,-0.237877 -0.49454,-0.237876 -0.69929,-0.237876 -0.95082,-0.237877 -1.24258,-0.237876 -1.55967,-0.237876 -1.87867,-0.237876 -2.16907,-0.237877 -2.3968,-0.237876 -2.52946,-0.237876 -2.54241,-0.237877 -2.42429,-0.237876 -2.18085,-0.237876 -1.8356,-0.237876 -1.42694,-0.237877 -1.00208,-0.237876 -0.60879,-0.237876 -0.28673,-0.237877 -0.0605,-0.237876 0.0644,-0.237876 0.10163,-0.237877 0.0796,-0.237876 0.0346,-0.237876 0.002,-0.237876 0.0109,-0.237877 0.074,-0.237876 0.191,-0.237876 0.34781,-0.237877 0.52198,-0.237876 0.68879,-0.237876 0.82727,-0.237877 0.92454,-0.237876 0.97768,-0.237876 0.9932,-0.237876 0.98424,-0.237877 0.96657,-0.237876 0.95454,-0.237876 0.95782,-0.237877 0.97974,-0.237876 1.01745,-0.237876 1.06351,-0.237876 1.10851,-0.237877 1.14364,-0.237876 1.16265,-0.237876 1.16258,-0.237877 1.14356,-0.237876 1.10765,-0.237876 1.05761,-0.237877 0.99583,-0.237876 0.92397,-0.237876 0.84321,-0.237876 0.75471,-0.237877 0.66031,-0.237876 0.56278,-0.237876 0.46574,-0.237877 0.3732,-0.237876 0.28888,-0.237876 0.21559,-0.237876 0.1549,-0.237877 0.10704,-0.237876 0.0711,-0.237876 0.0453,-0.237877 0.0277,-0.237876 0.0163,-0.237876 0.009,-0.237877 0.005,-0.237876 0.002,-0.237876 9.2e-4,-0.237876 -1.2e-4,-0.237877 -0.001,-0.237876 -0.003,-0.237876 -0.005,-0.237877 -0.009,-0.237876 -0.0141,-0.237876 -0.0224,-0.237877 -0.0337,-0.237876 -0.0484,-0.237876 -0.0662,-0.237876 -0.086,-0.237877 -0.10585,-0.237876 -0.12303,-0.237876 -0.13428,-0.237877 -0.13645,-0.237876 -0.12715,-0.237876 -0.10552,-0.237876 -0.0726,-0.237877 -0.0314,-0.237876 0.0135,-0.237876 0.0568,-0.237877 0.0935,-0.237876 0.11995,-0.237876 0.13419,-0.237877 0.1364,-0.237876 0.12844,-0.237876 0.11323,-0.237876 0.0941,-0.237877 0.074,-0.237876 0.0552,-0.237876 h 0.21342 v 0 l 0.0552,0.237876 0.074,0.237876 0.0941,0.237877 0.11323,0.237876 0.12844,0.237876 0.1364,0.237876 0.13419,0.237877 0.11994,0.237876 0.0935,0.237876 0.0568,0.237877 0.0135,0.237876 -0.0314,0.237876 -0.0726,0.237877 -0.10551,0.237876 -0.12715,0.237876 -0.13645,0.237876 -0.13428,0.237877 -0.12303,0.237876 -0.10585,0.237876 -0.086,0.237877 -0.0662,0.237876 -0.0484,0.237876 -0.0337,0.237876 -0.0224,0.237877 -0.0141,0.237876 -0.009,0.237876 -0.005,0.237877 -0.003,0.237876 -0.001,0.237876 -1.2e-4,0.237877 9.2e-4,0.237876 0.002,0.237876 0.005,0.237876 0.009,0.237877 0.0162,0.237876 0.0277,0.237876 0.0453,0.237877 0.0711,0.237876 0.10703,0.237876 0.15491,0.237877 0.21559,0.237876 0.28888,0.237876 0.3732,0.237876 0.46574,0.237877 0.56277,0.237876 0.66031,0.237876 0.75472,0.237877 0.84321,0.237876 0.92397,0.237876 0.99582,0.237876 1.05761,0.237877 1.10766,0.237876 1.14356,0.237876 1.16258,0.237877 1.16264,0.237876 1.14365,0.237876 1.1085,0.237877 1.06351,0.237876 1.01745,0.237876 0.97975,0.237876 0.95782,0.237877 0.95453,0.237876 0.96657,0.237876 0.98424,0.237877 0.99321,0.237876 0.97768,0.237876 0.92453,0.237876 0.82728,0.237877 0.68879,0.237876 0.52198,0.237876 0.34781,0.237877 0.19099,0.237876 0.074,0.237876 0.0109,0.237877 0.002,0.237876 0.0346,0.237876 0.0796,0.237876 0.10162,0.237877 0.0644,0.237876 -0.0605,0.237876 -0.28674,0.237877 -0.60878,0.237876 -1.00208,0.237876 -1.42694,0.237877 -1.8356,0.237876 -2.18085,0.237876 -2.42429,0.237876 -2.54241,0.237877 -2.52947,0.237876 -2.39679,0.237876 -2.16907,0.237877 -1.87867,0.237876 -1.55968,0.237876 -1.24257,0.237876 -0.95082,0.237877 -0.69929,0.237876 -0.49455,0.237876 -0.33644,0.237877 z"
   style="stroke:#373737;stroke-width:1.25;stroke-opacity:0.5" /><path
   id="mdb903c9e20"
   d="m 461.95398,-50.47036 h -1.29296 l -0.22127,-0.45566 -0.28091,-0.455659 -0.35103,-0.455659 -0.43179,-0.455659 -0.52283,-0.455659 -0.62319,-0.455659 -0.73121,-0.45566 -0.84455,-0.455659 -0.96024,-0.455659 -1.07469,-0.455659 -1.18392,-0.455659 -1.28369,-0.455659 -1.36983,-0.45566 -1.43835,-0.455659 -1.48584,-0.455659 -1.50961,-0.455659 -1.50791,-0.455659 -1.48007,-0.45566 -1.42653,-0.455659 -1.34885,-0.455659 -1.24962,-0.455659 -1.1323,-0.455659 -1.00096,-0.455659 -0.86013,-0.45566 -0.71441,-0.455659 -0.56824,-0.455659 -0.42562,-0.455659 -0.28989,-0.455659 -0.16349,-0.45566 -0.0479,-0.455659 0.0565,-0.455659 0.15031,-0.455659 0.23495,-0.455659 0.31256,-0.455659 0.38568,-0.45566 0.45692,-0.455659 0.52863,-0.455659 0.60261,-0.455659 0.67982,-0.455659 0.76024,-0.455659 0.84272,-0.45566 0.92516,-0.455659 1.00447,-0.455659 1.07706,-0.455659 1.13893,-0.455659 1.18622,-0.45566 1.21546,-0.455659 1.22387,-0.455659 1.20974,-0.455659 1.17236,-0.455659 1.11226,-0.455659 1.03107,-0.45566 0.93132,-0.455659 0.81642,-0.455659 0.69027,-0.455659 0.55707,-0.455659 0.42119,-0.45566 0.2868,-0.455659 0.15792,-0.455659 0.0381,-0.455659 -0.0695,-0.455659 -0.16236,-0.455659 -0.2384,-0.45566 -0.2962,-0.455659 -0.33498,-0.455659 -0.35453,-0.455659 -0.35523,-0.455659 -0.3381,-0.455659 -0.30456,-0.45566 -0.25659,-0.455659 -0.19645,-0.455659 -0.12674,-0.455659 -0.0502,-0.455659 0.0304,-0.45566 0.11227,-0.455659 0.1927,-0.455659 0.26922,-0.455659 0.33963,-0.455659 0.40201,-0.455659 0.45482,-0.45566 0.49692,-0.455659 0.52759,-0.455659 0.54655,-0.455659 0.55396,-0.455659 0.55035,-0.45566 0.53665,-0.455659 0.51412,-0.455659 0.48421,-0.455659 0.44855,-0.455659 0.40885,-0.455659 0.36676,-0.45566 0.32387,-0.455659 0.28154,-0.455659 0.24097,-0.455659 0.20307,-0.455659 0.16852,-0.45566 0.13769,-0.455659 0.11078,-0.455659 0.0878,-0.455659 h 0.52546 v 0 l 0.0878,0.455659 0.11078,0.455659 0.13769,0.455659 0.16852,0.45566 0.20307,0.455659 0.24097,0.455659 0.28154,0.455659 0.32386,0.455659 0.36677,0.45566 0.40885,0.455659 0.44855,0.455659 0.48421,0.455659 0.51412,0.455659 0.53665,0.455659 0.55035,0.45566 0.55395,0.455659 0.54656,0.455659 0.52759,0.455659 0.49692,0.455659 0.45482,0.45566 0.40201,0.455659 0.33963,0.455659 0.26922,0.455659 0.1927,0.455659 0.11227,0.455659 0.0304,0.45566 -0.0502,0.455659 -0.12674,0.455659 -0.19645,0.455659 -0.25659,0.455659 -0.30457,0.45566 -0.33809,0.455659 -0.35523,0.455659 -0.35453,0.455659 -0.33498,0.455659 -0.2962,0.455659 -0.2384,0.45566 -0.16236,0.455659 -0.0695,0.455659 0.0381,0.455659 0.15792,0.455659 0.2868,0.455659 0.42119,0.45566 0.55707,0.455659 0.69027,0.455659 0.81642,0.455659 0.93132,0.455659 1.03107,0.45566 1.11226,0.455659 1.17236,0.455659 1.20974,0.455659 1.22387,0.455659 1.21545,0.455659 1.18623,0.45566 1.13893,0.455659 1.07705,0.455659 1.00448,0.455659 0.92515,0.455659 0.84273,0.45566 0.76024,0.455659 0.67982,0.455659 0.60261,0.455659 0.52863,0.455659 0.45692,0.455659 0.38568,0.45566 0.31256,0.455659 0.23495,0.455659 0.15031,0.455659 0.0565,0.455659 -0.0479,0.455659 -0.16349,0.45566 -0.28989,0.455659 -0.42562,0.455659 -0.56824,0.455659 -0.71441,0.455659 -0.86013,0.45566 -1.00096,0.455659 -1.1323,0.455659 -1.24962,0.455659 -1.34885,0.455659 -1.42653,0.455659 -1.48007,0.45566 -1.50791,0.455659 -1.50961,0.455659 -1.48584,0.455659 -1.43835,0.455659 -1.36983,0.45566 -1.28369,0.455659 -1.18392,0.455659 -1.07469,0.455659 -0.96024,0.455659 -0.84456,0.455659 -0.7312,0.45566 -0.62319,0.455659 -0.52283,0.455659 -0.43179,0.455659 -0.35103,0.455659 -0.28091,0.455659 z"
   style="stroke:#373737;stroke-width:1.25;stroke-opacity:0.5" /><path
   id="ma539b73c3e"
   d="m 529.74471,-46.105625 h -0.99779 l -0.1504,-0.831909 -0.18749,-0.831909 -0.23116,-0.831909 -0.28191,-0.831909 -0.34006,-0.831909 -0.40569,-0.831909 -0.47869,-0.831909 -0.55858,-0.831909 -0.64459,-0.831909 -0.7355,-0.831909 -0.82979,-0.831909 -0.92549,-0.831909 -1.0203,-0.831909 -1.11164,-0.831909 -1.19668,-0.831909 -1.27251,-0.831909 -1.33621,-0.831909 -1.38501,-0.831909 -1.41639,-0.831909 -1.42828,-0.831909 -1.41906,-0.831909 -1.3878,-0.831909 -1.33423,-0.831909 -1.25876,-0.831909 -1.16248,-0.831909 -1.0472,-0.831909 -0.91516,-0.831909 -0.76916,-0.831909 -0.61222,-0.831909 -0.44755,-0.831909 -0.27843,-0.831909 -0.10801,-0.831909 0.0607,-0.831909 0.22495,-0.831909 0.38226,-0.831909 0.53045,-0.831909 0.66757,-0.831909 0.79196,-0.831909 0.90211,-0.831909 0.9967,-0.831909 1.07455,-0.831909 1.13465,-0.831909 1.17607,-0.831909 1.19816,-0.831909 1.20045,-0.831909 1.18282,-0.831909 1.14552,-0.831909 1.08924,-0.831909 1.01519,-0.831909 0.92509,-0.831909 0.82122,-0.831909 0.70633,-0.831909 0.58366,-0.831909 0.45675,-0.831909 0.32939,-0.831909 0.20543,-0.831909 0.0886,-0.831909 -0.0175,-0.831909 -0.10982,-0.831909 -0.18586,-0.831909 -0.24377,-0.831909 -0.28242,-0.831909 -0.30151,-0.831909 -0.30154,-0.831909 -0.28368,-0.831909 -0.24981,-0.83191 -0.20222,-0.83191 -0.14365,-0.83191 -0.077,-0.83191 -0.005,-0.8319 0.0691,-0.83191 0.14302,-0.83191 0.21443,-0.83191 0.2814,-0.83191 0.34241,-0.83191 0.39636,-0.83191 0.44245,-0.83191 0.48028,-0.83191 0.50967,-0.83191 0.53068,-0.8319 0.54355,-0.83191 0.54863,-0.83191 0.54642,-0.83191 0.53748,-0.83191 0.52245,-0.83191 0.50206,-0.83191 0.47707,-0.83191 0.4483,-0.83191 0.4166,-0.83191 0.38285,-0.83191 0.34789,-0.8319 0.31256,-0.83191 0.2776,-0.83191 0.24371,-0.83191 0.21146,-0.83191 0.18132,-0.83191 0.15363,-0.83191 0.12862,-0.83191 0.10637,-0.83191 h 0.78198 v 0 l 0.10638,0.83191 0.12861,0.83191 0.15363,0.83191 0.18132,0.83191 0.21146,0.83191 0.24371,0.83191 0.2776,0.83191 0.31256,0.83191 0.34789,0.8319 0.38285,0.83191 0.41661,0.83191 0.4483,0.83191 0.47707,0.83191 0.50205,0.83191 0.52246,0.83191 0.53747,0.83191 0.54642,0.83191 0.54863,0.83191 0.54355,0.83191 0.53068,0.8319 0.50967,0.83191 0.48028,0.83191 0.44246,0.83191 0.39635,0.83191 0.34241,0.83191 0.28141,0.83191 0.21443,0.83191 0.14301,0.83191 0.0691,0.83191 -0.005,0.8319 -0.077,0.83191 -0.14366,0.83191 -0.20222,0.83191 -0.2498,0.83191 -0.28369,0.831909 -0.30153,0.831909 -0.30152,0.831909 -0.28242,0.831909 -0.24376,0.831909 -0.18587,0.831909 -0.10982,0.831909 -0.0175,0.831909 0.0886,0.831909 0.20543,0.831909 0.32939,0.831909 0.45675,0.831909 0.58366,0.831909 0.70634,0.831909 0.82121,0.831909 0.9251,0.831909 1.01519,0.831909 1.08923,0.831909 1.14552,0.831909 1.18282,0.831909 1.20045,0.831909 1.19816,0.831909 1.17607,0.831909 1.13465,0.831909 1.07456,0.831909 0.9967,0.831909 0.9021,0.831909 0.79196,0.831909 0.66758,0.831909 0.53044,0.831909 0.38226,0.831909 0.22495,0.831909 0.0607,0.831909 -0.10802,0.831909 -0.27843,0.831909 -0.44755,0.831909 -0.61222,0.831909 -0.76915,0.831909 -0.91517,0.831909 -1.04719,0.831909 -1.16249,0.831909 -1.25875,0.831909 -1.33423,0.831909 -1.38781,0.831909 -1.41906,0.831909 -1.42827,0.831909 -1.4164,0.831909 -1.38501,0.831909 -1.33621,0.831909 -1.27251,0.831909 -1.19668,0.831909 -1.11163,0.831909 -1.0203,0.831909 -0.92549,0.831909 -0.82979,0.831909 -0.73551,0.831909 -0.64458,0.831909 -0.55859,0.831909 -0.47869,0.831909 -0.40569,0.831909 -0.34005,0.831909 -0.28192,0.831909 -0.23116,0.831909 -0.18748,0.831909 z"
   style="stroke:#373737;stroke-width:1.25;stroke-opacity:0.5" /><path
   id="m2af86362ef"
   d="M 0,0 H 3.5"
   style="stroke:#000000;stroke-width:0.8" /><clipPath
   id="pda39df418b"><rect
     x="42.807499"
     y="33.989624"
     width="209.25"
     height="124.74"
     id="rect1172" /></clipPath><clipPath
   id="pf88706f292"><rect
     x="670.5575"
     y="33.989624"
     width="209.25"
     height="124.74"
     id="rect1174" /></clipPath><clipPath
   id="p882a5a6772"><rect
     x="42.807499"
     y="238.14531"
     width="167.39999"
     height="90.648613"
     id="rect1175" /></clipPath><clipPath
   id="p9b23ca207c"><rect
     x="670.5575"
     y="221.09962"
     width="209.25"
     height="124.74"
     id="rect1177" /></clipPath><clipPath
   id="p009c7a8d1d"><rect
     x="42.807499"
     y="408.20963"
     width="209.25"
     height="124.74"
     id="rect1178" /></clipPath><clipPath
   id="pde94b22b7f"><rect
     x="356.6825"
     y="408.20963"
     width="209.25"
     height="124.74"
     id="rect1179" /></clipPath><clipPath
   id="pf88706f292-9"><rect
     x="670.5575"
     y="33.989624"
     width="209.25"
     height="124.74"
     id="rect1174-3" /></clipPath><style
   type="text/css"
   id="style1-5">*{stroke-linejoin: round; stroke-linecap: butt}</style><path
   id="mdcbabad653"
   d="m 135.98464,-40.731623 h -0.63553 l -0.28963,-1.198435 -0.50003,-1.198436 -0.82036,-1.198435 -1.27926,-1.198436 -1.89633,-1.198436 -2.67222,-1.198435 -3.57966,-1.198436 -4.55867,-1.198436 -5.51938,-1.198435 -6.35383,-1.198436 -6.95479,-1.198435 -7.236872,-1.198436 -7.153581,-1.198436 -6.705422,-1.198435 -5.936779,-1.198436 -4.923434,-1.198436 -3.755369,-1.198435 -2.520479,-1.198436 -1.293633,-1.198435 -0.132506,-1.198436 0.921419,-1.198436 1.840177,-1.198435 2.607707,-1.198436 3.21972,-1.198436 3.683003,-1.198435 4.011927,-1.198436 4.22203,-1.198436 4.323569,-1.198435 4.319216,-1.198436 4.208164,-1.198435 3.994811,-1.198436 3.696762,-1.198436 3.34659,-1.198435 2.98531,-1.198436 2.65023,-1.198436 2.36348,-1.198435 2.12687,-1.198436 1.92544,-1.198435 1.73735,-1.198436 1.54492,-1.198436 1.34186,-1.198435 1.1343,-1.198436 0.93638,-1.198436 0.76339,-1.198435 0.62618,-1.198436 0.52818,-1.198435 0.46608,-1.198436 0.43215,-1.198436 0.41706,-1.198435 0.41187,-1.198432 0.40861,-1.19844 0.40015,-1.19844 0.38032,-1.19843 0.34485,-1.19844 0.2932,-1.19843 0.23013,-1.19844 0.16567,-1.19843 0.11295,-1.19844 0.0845,-1.19843 0.0882,-1.19844 0.12551,-1.19844 0.19049,-1.19843 0.27197,-1.19844 0.35578,-1.19843 0.42725,-1.19844 0.47373,-1.19843 0.48652,-1.19844 0.46247,-1.19844 0.40428,-1.19843 0.31984,-1.19844 0.22019,-1.19843 0.11754,-1.19844 0.0234,-1.19843 -0.0526,-1.19844 -0.10347,-1.19843 -0.12535,-1.19844 -0.11866,-1.19844 -0.0883,-1.19843 -0.0433,-1.19844 0.005,-1.19843 0.0467,-1.19844 0.0731,-1.19843 0.0811,-1.19844 0.0725,-1.19843 0.0531,-1.19844 0.0316,-1.19844 0.0166,-1.19843 0.0154,-1.19844 0.0307,-1.19843 0.0607,-1.19844 0.0989,-1.19843 0.13611,-1.19844 0.1636,-1.19844 0.17551,-1.19843 0.17041,-1.19844 0.15115,-1.19843 0.12324,-1.19844 0.0928,-1.19843 0.0647,-1.19844 h 0.19005 v 0 l 0.0647,1.19844 0.0928,1.19843 0.12324,1.19844 0.15115,1.19843 0.17041,1.19844 0.17551,1.19843 0.1636,1.19844 0.13611,1.19844 0.0989,1.19843 0.0607,1.19844 0.0307,1.19843 0.0154,1.19844 0.0166,1.19843 0.0316,1.19844 0.0531,1.19844 0.0725,1.19843 0.0811,1.19844 0.0731,1.19843 0.0467,1.19844 0.005,1.19843 -0.0433,1.19844 -0.0884,1.19843 -0.11866,1.19844 -0.12535,1.19844 -0.10347,1.19843 -0.0526,1.19844 0.0234,1.19843 0.11754,1.19844 0.22019,1.19843 0.31984,1.19844 0.40428,1.19843 0.46247,1.19844 0.48652,1.19844 0.47372,1.19843 0.42726,1.19844 0.35578,1.19843 0.27197,1.19844 0.19049,1.19843 0.12551,1.19844 0.0882,1.19844 0.0845,1.19843 0.11295,1.19844 0.16567,1.19843 0.23013,1.19844 0.2932,1.19843 0.34485,1.19844 0.38032,1.19843 0.40015,1.19844 0.40861,1.19844 0.41187,1.198432 0.41706,1.198435 0.43215,1.198436 0.46608,1.198436 0.52818,1.198435 0.62618,1.198436 0.76339,1.198435 0.93638,1.198436 1.1343,1.198436 1.34186,1.198435 1.54492,1.198436 1.73735,1.198436 1.92544,1.198435 2.12687,1.198436 2.36348,1.198435 2.65023,1.198436 2.98531,1.198436 3.34659,1.198435 3.69676,1.198436 3.99481,1.198436 4.20817,1.198435 4.31921,1.198436 4.32357,1.198435 4.22203,1.198436 4.01193,1.198436 3.683,1.198435 3.21972,1.198436 2.60771,1.198436 1.84018,1.198435 0.92141,1.198436 -0.1325,1.198436 -1.29363,1.198435 -2.52048,1.198436 -3.75537,1.198435 -4.92344,1.198436 -5.93678,1.198436 -6.70542,1.198435 -7.15358,1.198436 -7.23687,1.198436 -6.95479,1.198435 -6.35383,1.198436 -5.51938,1.198435 -4.55867,1.198436 -3.57966,1.198436 -2.67222,1.198435 -1.89633,1.198436 -1.27926,1.198436 -0.82036,1.198435 -0.50003,1.198436 z"
   style="stroke:#373737;stroke-width:1.25;stroke-opacity:0.5" /><path
   id="C0_0_a29aa58b6a"
   d="M 0,5 C 1.326016,5 2.597899,4.473168 3.535534,3.535534 4.473168,2.597899 5,1.326016 5,0 5,-1.326016 4.473168,-2.597899 3.535534,-3.535534 2.597899,-4.473168 1.326016,-5 0,-5 -1.326016,-5 -2.597899,-4.473168 -3.535534,-3.535534 -4.473168,-2.597899 -5,-1.326016 -5,0 -5,1.326016 -4.473168,2.597899 -3.535534,3.535534 -2.597899,4.473168 -1.326016,5 0,5 Z" /><path
   id="C1_0_7ed590a89c"
   d="M 0,5 C 1.326016,5 2.597899,4.473168 3.535534,3.535534 4.473168,2.597899 5,1.326016 5,0 5,-1.326016 4.473168,-2.597899 3.535534,-3.535534 2.597899,-4.473168 1.326016,-5 0,-5 -1.326016,-5 -2.597899,-4.473168 -3.535534,-3.535534 -4.473168,-2.597899 -5,-1.326016 -5,0 -5,1.326016 -4.473168,2.597899 -3.535534,3.535534 -2.597899,4.473168 -1.326016,5 0,5 Z" /><path
   id="C2_0_2e628a2fb6"
   d="M 0,5 C 1.326016,5 2.597899,4.473168 3.535534,3.535534 4.473168,2.597899 5,1.326016 5,0 5,-1.326016 4.473168,-2.597899 3.535534,-3.535534 2.597899,-4.473168 1.326016,-5 0,-5 -1.326016,-5 -2.597899,-4.473168 -3.535534,-3.535534 -4.473168,-2.597899 -5,-1.326016 -5,0 -5,1.326016 -4.473168,2.597899 -3.535534,3.535534 -2.597899,4.473168 -1.326016,5 0,5 Z" /><clipPath
   id="pbbc3e8eb05"><rect
     x="42.666874"
     y="7.1999998"
     width="558"
     height="277.20001"
     id="rect48" /></clipPath>
</defs><g
     id="g1909"
     inkscape:label="stim_3d"
     transform="matrix(0.35277777,0,0,0.35277777,-253.1215,-19.52645)"><rect
       style="opacity:0.2;fill:#f66151;fill-opacity:1;stroke:none;stroke-width:0.235175;stroke-linecap:round;stroke-linejoin:miter;stroke-dasharray:none;stroke-dashoffset:0;stroke-opacity:1;paint-order:fill markers stroke"
       id="rect1909-0"
       width="84.804199"
       height="50.788448"
       x="-805.047"
       y="55.350574"
       transform="scale(-1,1)" /><rect
       style="opacity:0.2;fill:#f66151;fill-opacity:1;stroke:none;stroke-width:0.235175;stroke-linecap:round;stroke-linejoin:miter;stroke-dasharray:none;stroke-dashoffset:0;stroke-opacity:1;paint-order:fill markers stroke"
       id="rect1909-1"
       width="84.804199"
       height="50.788448"
       x="-814.42865"
       y="62.858814"
       transform="scale(-1,1)" /><rect
       style="opacity:0.2;fill:#f66151;fill-opacity:1;stroke:none;stroke-width:0.235175;stroke-linecap:round;stroke-linejoin:miter;stroke-dasharray:none;stroke-dashoffset:0;stroke-opacity:1;paint-order:fill markers stroke"
       id="rect1909-77"
       width="84.804199"
       height="50.788448"
       x="-823.8103"
       y="70.367043"
       transform="scale(-1,1)" /><rect
       style="opacity:0.2;fill:#f66151;fill-opacity:1;stroke:none;stroke-width:0.235175;stroke-linecap:round;stroke-linejoin:miter;stroke-dasharray:none;stroke-dashoffset:0;stroke-opacity:1;paint-order:fill markers stroke"
       id="rect1909-7"
       width="84.804199"
       height="50.788448"
       x="-833.19196"
       y="77.875282"
       transform="scale(-1,1)" /><rect
       style="opacity:0.2;fill:#f66151;fill-opacity:1;stroke:none;stroke-width:0.235175;stroke-linecap:round;stroke-linejoin:miter;stroke-dasharray:none;stroke-dashoffset:0;stroke-opacity:1;paint-order:fill markers stroke"
       id="rect1909-3"
       width="84.804199"
       height="50.788448"
       x="-842.57361"
       y="85.383522"
       transform="scale(-1,1)" /><rect
       style="opacity:0.2;fill:#f66151;fill-opacity:1;stroke:none;stroke-width:0.235175;stroke-linecap:round;stroke-linejoin:miter;stroke-dasharray:none;stroke-dashoffset:0;stroke-opacity:1;paint-order:fill markers stroke"
       id="rect1909-27"
       width="84.804199"
       height="50.788448"
       x="-851.95526"
       y="92.891762"
       transform="scale(-1,1)" /><rect
       style="opacity:0.2;fill:#f66151;fill-opacity:1;stroke:none;stroke-width:0.235175;stroke-linecap:round;stroke-linejoin:miter;stroke-dasharray:none;stroke-dashoffset:0;stroke-opacity:1;paint-order:fill markers stroke"
       id="rect1909-9"
       width="84.804199"
       height="50.788448"
       x="-861.33691"
       y="100.4"
       transform="scale(-1,1)" /><rect
       style="opacity:0.2;fill:#f66151;fill-opacity:1;stroke:none;stroke-width:0.235175;stroke-linecap:round;stroke-linejoin:miter;stroke-dasharray:none;stroke-dashoffset:0;stroke-opacity:1;paint-order:fill markers stroke"
       id="rect1909-2"
       width="84.804199"
       height="50.788448"
       x="-870.71857"
       y="107.90824"
       transform="scale(-1,1)" /><rect
       style="opacity:0.8;fill:#f66151;fill-opacity:1;stroke:none;stroke-width:0.235175;stroke-linecap:round;stroke-linejoin:miter;stroke-dasharray:none;stroke-dashoffset:0;stroke-opacity:1;paint-order:fill markers stroke"
       id="rect1909"
       width="84.804199"
       height="50.788448"
       x="-880.10022"
       y="115.4165"
       transform="scale(-1,1)" /><path
       style="fill:none;stroke:#000000;stroke-width:0.751181;stroke-linecap:round;stroke-linejoin:miter;stroke-dasharray:none;stroke-opacity:1;marker-end:url(#Triangle)"
       d="M 794.96301,166.47742 719.45258,106.08339"
       id="path1909"
       sodipodi:nodetypes="cc" /><path
       style="fill:none;stroke:#000000;stroke-width:0.717831;stroke-linecap:round;stroke-linejoin:miter;stroke-dasharray:none;stroke-opacity:1;marker-end:url(#Triangle)"
       d="m 794.96301,166.47742 -0.26317,-55.45584"
       id="path1910"
       sodipodi:nodetypes="cc" /><path
       style="fill:none;stroke:#000000;stroke-width:0.75px;stroke-linecap:round;stroke-linejoin:miter;stroke-opacity:1;marker-end:url(#marker1913)"
       d="m 794.96301,166.47742 87.44967,0.11743"
       id="path1912"
       sodipodi:nodetypes="cc" /><text
       xml:space="preserve"
       style="font-size:10px;line-height:1.25;font-family:Arial;-inkscape-font-specification:Arial;stroke-width:0.75"
       x="627.22009"
       y="-393.37912"
       id="text1913"
       transform="rotate(41.929294)"><tspan
         sodipodi:role="line"
         id="tspan1913"
         style="font-size:10px;stroke-width:0.75"
         x="627.22009"
         y="-393.37912">Pulse #</tspan></text><text
       xml:space="preserve"
       style="font-size:10px;line-height:1.25;font-family:Arial;-inkscape-font-specification:Arial;writing-mode:tb-rl;stroke-width:0.75"
       x="-788.81952"
       y="-154.54158"
       id="text1914"
       transform="scale(-1)"><tspan
         sodipodi:role="line"
         id="tspan1914"
         style="font-size:10px;stroke-width:0.75"
         x="-788.81952"
         y="-154.54158">Frequency</tspan></text><text
       xml:space="preserve"
       style="font-size:10px;line-height:1.25;font-family:Arial;-inkscape-font-specification:Arial;writing-mode:lr-tb;stroke-width:0.75"
       x="817.52698"
       y="176.00507"
       id="text1915"><tspan
         sodipodi:role="line"
         id="tspan1915"
         style="font-size:10px;writing-mode:lr-tb;stroke-width:0.75"
         x="817.52698"
         y="176.00507">Num Sq</tspan></text></g><metadata
     id="metadata1"><rdf:RDF><cc:Work
         rdf:about=""><dc:title>Figure1</dc:title><dc:date>7May24</dc:date><dc:creator><cc:Agent><dc:title>Aditya Asopa</dc:title></cc:Agent></dc:creator><dc:identifier>v2</dc:identifier></cc:Work></rdf:RDF></metadata></svg>
